<?xml version="1.0" standalone="no"?><!DOCTYPE svg PUBLIC "-//W3C//DTD SVG 1.1//EN" "http://www.w3.org/Graphics/SVG/1.1/DTD/svg11.dtd"><svg t="1572154898118" class="icon" viewBox="0 0 1024 1024" version="1.1" xmlns="http://www.w3.org/2000/svg" p-id="3210" xmlns:xlink="http://www.w3.org/1999/xlink" width="200" height="200"><defs><style type="text/css"></style></defs><path d="M144.700101 684.994006l535.580045 0L680.280146 359.237781 144.700101 359.237781 144.700101 684.994006 144.700101 684.994006zM918.373823 440.680675l0-81.442894c0-44.791136-36.649711-81.437777-81.437777-81.437777l-692.235944 0c-44.791136 0-81.437777 36.646642-81.437777 81.437777L63.262324 684.994006c0 44.791136 36.646642 81.442894 81.437777 81.442894l692.235944 0c44.788066 0 81.437777-36.650735 81.437777-81.442894l0-81.437777c22.396079 0 40.7194-18.322297 40.7194-40.7194l0-81.436754C959.093223 459.003995 940.769902 440.680675 918.373823 440.680675L918.373823 440.680675zM877.655446 481.400075l0 81.436754L877.655446 684.994006c0 22.395056-18.323321 40.718377-40.7194 40.718377l-692.235944 0c-22.396079 0-40.7194-18.323321-40.7194-40.718377L103.980701 359.237781c0-22.396079 18.323321-40.7194 40.7194-40.7194l692.235944 0c22.396079 0 40.7194 18.323321 40.7194 40.7194L877.655446 481.400075 877.655446 481.400075zM877.655446 481.400075" p-id="3211" fill="#ffffff"></path></svg>